<mxfile host="" modified="2020-06-11T08:09:14.791Z" agent="5.0 (Windows NT 10.0; Win64; x64) AppleWebKit/537.36 (KHTML, like Gecko) Code/1.46.0 Chrome/78.0.3904.130 Electron/7.3.1 Safari/537.36" etag="xMQplZ4IC9osxRcdIAOS" version="13.1.3">
    <diagram id="6hGFLwfOUW9BJ-s0fimq" name="Page-1">
        <mxGraphModel dx="943" dy="628" grid="1" gridSize="10" guides="1" tooltips="1" connect="1" arrows="1" fold="1" page="1" pageScale="1" pageWidth="827" pageHeight="1169" background="#FCFCFC" math="0" shadow="1">
            <root>
                <mxCell id="0"/>
                <mxCell id="1" parent="0"/>
                <mxCell id="7" value="&lt;h1&gt;Diet-Maintainance-Site&lt;/h1&gt;&lt;p&gt;There will be multiple pages leading to multiple data to be manipulated by the user.&lt;/p&gt;&lt;p&gt;For this particular reason this workflow is created&lt;/p&gt;" style="text;html=1;strokeColor=none;fillColor=none;spacing=5;spacingTop=-20;whiteSpace=wrap;overflow=hidden;rounded=0;" parent="1" vertex="1">
                    <mxGeometry y="30" width="340" height="110" as="geometry"/>
                </mxCell>
                <mxCell id="28" style="edgeStyle=orthogonalEdgeStyle;curved=1;rounded=0;orthogonalLoop=1;jettySize=auto;html=1;exitX=0.5;exitY=1;exitDx=0;exitDy=0;exitPerimeter=0;entryX=0.5;entryY=0;entryDx=0;entryDy=0;entryPerimeter=0;" edge="1" parent="1" source="10" target="21">
                    <mxGeometry relative="1" as="geometry"/>
                </mxCell>
                <mxCell id="29" style="edgeStyle=orthogonalEdgeStyle;curved=1;rounded=0;orthogonalLoop=1;jettySize=auto;html=1;exitX=1;exitY=1;exitDx=0;exitDy=0;exitPerimeter=0;" edge="1" parent="1" source="10" target="26">
                    <mxGeometry relative="1" as="geometry"/>
                </mxCell>
                <mxCell id="10" value="index.html" style="shape=card;whiteSpace=wrap;html=1;rounded=1;" parent="1" vertex="1">
                    <mxGeometry x="290" y="230" width="80" height="100" as="geometry"/>
                </mxCell>
                <mxCell id="12" value="HTML FILE =&amp;nbsp;&lt;br&gt;&lt;br&gt;SCRIPT FILE =&lt;br&gt;STYLING FILES&amp;nbsp;&lt;br&gt;&lt;br&gt;IMAGES&amp;nbsp;&amp;nbsp;&lt;br&gt;&lt;br&gt;FOLDERS&amp;nbsp;" style="rounded=0;whiteSpace=wrap;html=1;align=left;" parent="1" vertex="1">
                    <mxGeometry x="340" y="30" width="460" height="170" as="geometry"/>
                </mxCell>
                <mxCell id="16" value="" style="endArrow=classic;html=1;fontSize=12;exitX=0.152;exitY=0.822;exitDx=0;exitDy=0;exitPerimeter=0;" parent="1" source="12" edge="1">
                    <mxGeometry width="50" height="50" relative="1" as="geometry">
                        <mxPoint x="474" y="169.66" as="sourcePoint"/>
                        <mxPoint x="550" y="169.66" as="targetPoint"/>
                        <Array as="points">
                            <mxPoint x="500" y="169.66"/>
                        </Array>
                    </mxGeometry>
                </mxCell>
                <mxCell id="17" value="" style="endArrow=classic;html=1;fontSize=12;entryX=0.457;entryY=0.647;entryDx=0;entryDy=0;entryPerimeter=0;exitX=0.13;exitY=0.647;exitDx=0;exitDy=0;exitPerimeter=0;" parent="1" source="12" target="12" edge="1">
                    <mxGeometry width="50" height="50" relative="1" as="geometry">
                        <mxPoint x="414" y="140" as="sourcePoint"/>
                        <mxPoint x="490" y="140" as="targetPoint"/>
                        <Array as="points">
                            <mxPoint x="440" y="140"/>
                            <mxPoint x="460" y="140"/>
                        </Array>
                    </mxGeometry>
                </mxCell>
                <mxCell id="21" value="FoodChart.html" style="shape=card;whiteSpace=wrap;html=1;rounded=1;" vertex="1" parent="1">
                    <mxGeometry x="210" y="410" width="100" height="130" as="geometry"/>
                </mxCell>
                <mxCell id="26" value="WeeklyPlanHTML" style="pointerEvents=1;shadow=0;dashed=0;html=1;strokeColor=none;labelPosition=center;verticalLabelPosition=bottom;verticalAlign=top;outlineConnect=0;align=center;shape=mxgraph.office.concepts.folder;fillColor=#CCCBCB;" vertex="1" parent="1">
                    <mxGeometry x="390" y="410" width="110" height="110" as="geometry"/>
                </mxCell>
                <mxCell id="27" value="" style="pointerEvents=1;shadow=0;dashed=0;html=1;strokeColor=none;labelPosition=center;verticalLabelPosition=bottom;verticalAlign=top;outlineConnect=0;align=center;shape=mxgraph.office.concepts.folder;fillColor=#CCCBCB;" vertex="1" parent="1">
                    <mxGeometry x="557.5" y="160" width="22.5" height="20" as="geometry"/>
                </mxCell>
                <mxCell id="30" value="" style="outlineConnect=0;fontColor=#232F3E;gradientColor=none;fillColor=#D05C17;strokeColor=none;dashed=0;verticalLabelPosition=bottom;verticalAlign=top;align=center;html=1;fontSize=12;fontStyle=0;aspect=fixed;pointerEvents=1;shape=mxgraph.aws4.container_registry_image;" vertex="1" parent="1">
                    <mxGeometry x="557.5" y="130" width="18" height="18" as="geometry"/>
                </mxCell>
                <mxCell id="31" value="" style="endArrow=classic;html=1;fontSize=12;exitX=0.13;exitY=0.647;exitDx=0;exitDy=0;exitPerimeter=0;" edge="1" parent="1">
                    <mxGeometry width="50" height="50" relative="1" as="geometry">
                        <mxPoint x="449.99999999999994" y="110" as="sourcePoint"/>
                        <mxPoint x="550" y="110" as="targetPoint"/>
                        <Array as="points">
                            <mxPoint x="490.2" y="110.00999999999999"/>
                            <mxPoint x="510.2" y="110.00999999999999"/>
                        </Array>
                    </mxGeometry>
                </mxCell>
            </root>
        </mxGraphModel>
    </diagram>
</mxfile>